<svg width="384" height="384" viewBox="0 0 384 384" fill="none" xmlns="http://www.w3.org/2000/svg">
<circle cx="192" cy="192" r="176" fill="#00FF7F"/>
<path d="M77.35 242V222.68L114.334 160.58H78.454V141.26H137.932V160.58L100.81 222.68H139.45V242H77.35ZM160.786 242V141.26H222.886V158.924H181.072V181.556H218.056V199.22H181.072V224.336H222.886V242H160.786ZM274.444 243.38C267.728 243.38 261.84 242.138 256.78 239.654C251.72 237.078 247.764 233.536 244.912 229.028C242.152 224.428 240.772 219.092 240.772 213.02V170.24C240.772 164.076 242.152 158.74 244.912 154.232C247.764 149.724 251.72 146.228 256.78 143.744C261.84 141.168 267.728 139.88 274.444 139.88C281.252 139.88 287.14 141.168 292.108 143.744C297.168 146.228 301.078 149.724 303.838 154.232C306.69 158.74 308.116 164.076 308.116 170.24H287.416C287.416 166.192 286.266 163.11 283.966 160.994C281.758 158.878 278.584 157.82 274.444 157.82C270.304 157.82 267.084 158.878 264.784 160.994C262.576 163.11 261.472 166.192 261.472 170.24V213.02C261.472 216.976 262.576 220.058 264.784 222.266C267.084 224.382 270.304 225.44 274.444 225.44C278.584 225.44 281.758 224.382 283.966 222.266C286.266 220.058 287.416 216.976 287.416 213.02H308.116C308.116 219.092 306.69 224.428 303.838 229.028C301.078 233.536 297.168 237.078 292.108 239.654C287.14 242.138 281.252 243.38 274.444 243.38Z" fill="black"/>
</svg>
